<?xml version="1.0" encoding="utf-8"?>
<!-- Generator: Adobe Illustrator 21.0.2, SVG Export Plug-In . SVG Version: 6.00 Build 0)  -->
<svg version="1.2" baseProfile="tiny" id="Layer_1" xmlns="http://www.w3.org/2000/svg" xmlns:xlink="http://www.w3.org/1999/xlink"
	 x="0px" y="0px" viewBox="0 0 375 684" xml:space="preserve">
<g>
	<g>
		<image width="375" height="684" xlink:href="529BC0FAFA4AEE19.png" >
		</image>
	</g>
	<g>
		<path fill="#F6F7F7" d="M313.5,24.8H163.2H82.7c-19.8,0-35.8,16-35.8,35.8v539.7c0,19.8,16,35.8,35.8,35.8h230.8
			c1.7,0,3.3-0.1,4.9-0.3c17.4-2.4,30.9-17.4,30.9-35.5V60.6C349.3,40.8,333.3,24.8,313.5,24.8z"/>
		<linearGradient id="SVGID_1_" gradientUnits="userSpaceOnUse" x1="198.0894" y1="557.4923" x2="198.0894" y2="601.8339">
			<stop  offset="0" style="stop-color:#DADCDC"/>
			<stop  offset="1" style="stop-color:#FFFFFF"/>
		</linearGradient>
		<circle fill="url(#SVGID_1_)" cx="198.1" cy="590.9" r="21.8"/>
		<image width="371" height="678" xlink:href="529BC0FAFA4AEE1B.png"  transform="matrix(1 0 0 1 13 -6)">
		</image>
		<image width="187" height="612" xlink:href="529BC0FAFA4AEE1E.png"  transform="matrix(1 0 0 1 163 24)">
		</image>
	</g>
</g>
</svg>
